<svg width="1440" height="900" viewBox="0 0 1440 900" fill="none" xmlns="http://www.w3.org/2000/svg">
  <defs>
    <linearGradient id="stage" x1="0" y1="0" x2="1" y2="1">
      <stop stop-color="#172820"/>
      <stop offset="0.55" stop-color="#202636"/>
      <stop offset="1" stop-color="#121316"/>
    </linearGradient>
    <style>
      .title { font: 700 25px -apple-system, BlinkMacSystemFont, "SF Pro Display", "Apple SD Gothic Neo", sans-serif; fill: #F5F5F7; }
      .headline { font: 650 16px -apple-system, BlinkMacSystemFont, "SF Pro Text", "Apple SD Gothic Neo", sans-serif; fill: #F5F5F7; }
      .body { font: 500 13px -apple-system, BlinkMacSystemFont, "SF Pro Text", "Apple SD Gothic Neo", sans-serif; fill: #C8C8CD; }
      .caption { font: 500 11px -apple-system, BlinkMacSystemFont, "SF Pro Text", "Apple SD Gothic Neo", sans-serif; fill: #8E8E93; }
      .green { fill: #00FFA3; }
      .surface { fill: #1C1C1E; }
      .elevated { fill: #242426; }
      .line { stroke: rgba(255,255,255,0.08); stroke-width: 1; }
    </style>
  </defs>

  <rect width="1440" height="900" fill="#141416"/>
  <rect x="24" y="22" width="1392" height="856" rx="22" fill="#17181A" stroke="rgba(255,255,255,0.08)"/>
  <rect x="24" y="22" width="228" height="856" rx="22" fill="#151618" stroke="rgba(255,255,255,0.06)"/>
  <line x1="252" y1="22" x2="252" y2="878" class="line"/>
  <circle cx="52" cy="45" r="6" fill="#FF5F57"/>
  <circle cx="74" cy="45" r="6" fill="#FFBD2E"/>
  <circle cx="96" cy="45" r="6" fill="#28C840"/>

  <text x="56" y="112" class="title">CView</text>
  <rect x="46" y="178" width="182" height="34" rx="8" fill="#1C1C1E"/>
  <text x="68" y="200" class="caption">홈</text>
  <rect x="46" y="224" width="182" height="34" rx="8" fill="#00FFA3" fill-opacity="0.12" stroke="#00FFA3" stroke-opacity="0.32"/>
  <text x="68" y="246" class="body">라이브</text>
  <rect x="46" y="270" width="182" height="34" rx="8" fill="#1C1C1E"/>
  <text x="68" y="292" class="caption">검색</text>

  <rect x="252" y="22" width="1164" height="56" rx="0" fill="#17181A"/>
  <line x1="252" y1="78" x2="1416" y2="78" class="line"/>
  <text x="292" y="56" class="headline">Live</text>
  <rect x="618" y="34" width="278" height="32" rx="16" fill="#101113" stroke="rgba(255,255,255,0.10)"/>
  <rect x="624" y="39" width="86" height="22" rx="11" fill="#00FFA3"/>
  <text x="653" y="54" font-family="-apple-system, BlinkMacSystemFont, 'Apple SD Gothic Neo', sans-serif" font-size="11" font-weight="700" fill="#0A0A0A">탐색</text>
  <text x="748" y="54" class="caption">시청</text>
  <text x="838" y="54" class="caption">멀티</text>
  <rect x="1166" y="34" width="82" height="28" rx="14" fill="#1C1C1E" stroke="rgba(255,255,255,0.08)"/>
  <text x="1190" y="53" class="caption">세션 2/4</text>
  <rect x="1258" y="34" width="78" height="28" rx="14" fill="#1C1C1E" stroke="rgba(255,255,255,0.08)"/>
  <text x="1280" y="53" class="caption">새로고침</text>

  <g transform="translate(292 116)">
    <rect width="318" height="704" rx="16" fill="#17181A" stroke="rgba(255,255,255,0.08)"/>
    <text x="22" y="38" class="headline">탐색</text>
    <rect x="22" y="62" width="274" height="34" rx="10" fill="#1C1C1E" stroke="rgba(255,255,255,0.08)"/>
    <text x="42" y="84" class="caption">채널, 제목, 카테고리 검색</text>
    <rect x="22" y="118" width="70" height="24" rx="12" fill="#00FFA3" fill-opacity="0.14"/>
    <text x="45" y="134" class="caption" fill="#00FFA3">전체</text>
    <rect x="100" y="118" width="70" height="24" rx="12" fill="#1C1C1E"/>
    <text x="124" y="134" class="caption">LIVE</text>
    <rect x="178" y="118" width="84" height="24" rx="12" fill="#1C1C1E"/>
    <text x="202" y="134" class="caption">정렬</text>

    <g transform="translate(22 172)">
      <rect width="274" height="54" rx="10" fill="#1C1C1E"/>
      <circle cx="28" cy="27" r="15" fill="#00FFA3" fill-opacity="0.20"/>
      <circle cx="40" cy="38" r="4" fill="#FF3B30"/>
      <text x="56" y="24" class="body">채널 A</text>
      <text x="56" y="41" class="caption">게임 · 8.2K</text>
      <text x="226" y="33" class="caption">재생</text>
    </g>
    <g transform="translate(22 238)">
      <rect width="274" height="54" rx="10" fill="#17181A" stroke="rgba(255,255,255,0.06)"/>
      <circle cx="28" cy="27" r="15" fill="#5BA3FF" fill-opacity="0.18"/>
      <circle cx="40" cy="38" r="4" fill="#FF3B30"/>
      <text x="56" y="24" class="body">채널 B</text>
      <text x="56" y="41" class="caption">토크 · 2.1K</text>
      <text x="226" y="33" class="caption">+ 멀티</text>
    </g>
    <g transform="translate(22 304)">
      <rect width="274" height="54" rx="10" fill="#17181A" stroke="rgba(255,255,255,0.06)"/>
      <circle cx="28" cy="27" r="15" fill="#FF9F0A" fill-opacity="0.16"/>
      <text x="56" y="24" class="body">채널 C</text>
      <text x="56" y="41" class="caption">음악 · 934</text>
      <text x="226" y="33" class="caption">채팅</text>
    </g>
  </g>

  <g transform="translate(642 116)">
    <rect width="694" height="704" rx="16" fill="#17181A" stroke="rgba(255,255,255,0.08)"/>
    <rect x="24" y="24" width="646" height="402" rx="14" fill="url(#stage)"/>
    <rect x="46" y="360" width="54" height="22" rx="11" fill="#FF3B30"/>
    <text x="59" y="375" font-family="-apple-system, BlinkMacSystemFont, sans-serif" font-size="10" font-weight="700" fill="#FFFFFF">LIVE</text>
    <text x="112" y="377" class="body">선택하면 시청 모드에서 이 영역이 단일 플레이어가 됨</text>

    <line x1="24" y1="462" x2="670" y2="462" class="line"/>
    <text x="24" y="500" class="headline">모드별 콘텐츠는 하나만 표시</text>
    <text x="24" y="526" class="caption">탐색은 compact list, 시청은 media-first player, 멀티는 2x2 slot grid로 전환</text>

    <rect x="24" y="572" width="198" height="78" rx="12" fill="#1C1C1E"/>
    <text x="44" y="604" class="body">탐색</text>
    <text x="44" y="626" class="caption">가벼운 list + preview</text>
    <rect x="248" y="572" width="198" height="78" rx="12" fill="#1C1C1E"/>
    <text x="268" y="604" class="body">시청</text>
    <text x="268" y="626" class="caption">단일 player + drawer</text>
    <rect x="472" y="572" width="198" height="78" rx="12" fill="#1C1C1E"/>
    <text x="492" y="604" class="body">멀티</text>
    <text x="492" y="626" class="caption">grid + chat drawer</text>
  </g>
</svg>
