<svg width="1440" height="900" viewBox="0 0 1440 900" fill="none" xmlns="http://www.w3.org/2000/svg">
  <defs>
    <linearGradient id="video" x1="0" y1="0" x2="1" y2="1">
      <stop stop-color="#172820"/>
      <stop offset="0.55" stop-color="#222B3C"/>
      <stop offset="1" stop-color="#121316"/>
    </linearGradient>
    <style>
      .title { font: 700 25px -apple-system, BlinkMacSystemFont, "SF Pro Display", "Apple SD Gothic Neo", sans-serif; fill: #F5F5F7; }
      .headline { font: 650 16px -apple-system, BlinkMacSystemFont, "SF Pro Text", "Apple SD Gothic Neo", sans-serif; fill: #F5F5F7; }
      .body { font: 500 13px -apple-system, BlinkMacSystemFont, "SF Pro Text", "Apple SD Gothic Neo", sans-serif; fill: #C8C8CD; }
      .caption { font: 500 11px -apple-system, BlinkMacSystemFont, "SF Pro Text", "Apple SD Gothic Neo", sans-serif; fill: #8E8E93; }
      .line { stroke: rgba(255,255,255,0.08); stroke-width: 1; }
    </style>
  </defs>

  <rect width="1440" height="900" fill="#141416"/>
  <rect x="24" y="22" width="1392" height="856" rx="22" fill="#17181A" stroke="rgba(255,255,255,0.08)"/>
  <rect x="24" y="22" width="228" height="856" rx="22" fill="#151618" stroke="rgba(255,255,255,0.06)"/>
  <line x1="252" y1="22" x2="252" y2="878" class="line"/>
  <circle cx="52" cy="45" r="6" fill="#FF5F57"/>
  <circle cx="74" cy="45" r="6" fill="#FFBD2E"/>
  <circle cx="96" cy="45" r="6" fill="#28C840"/>
  <text x="56" y="112" class="title">CView</text>
  <rect x="46" y="224" width="182" height="34" rx="8" fill="#00FFA3" fill-opacity="0.12" stroke="#00FFA3" stroke-opacity="0.32"/>
  <text x="68" y="246" class="body">라이브</text>
  <rect x="46" y="270" width="182" height="34" rx="8" fill="#1C1C1E"/>
  <text x="68" y="292" class="caption">카테고리</text>

  <rect x="252" y="22" width="1164" height="56" fill="#17181A"/>
  <line x1="252" y1="78" x2="1416" y2="78" class="line"/>
  <text x="292" y="56" class="headline">Focus Split</text>
  <rect x="616" y="34" width="278" height="32" rx="16" fill="#101113" stroke="rgba(255,255,255,0.10)"/>
  <text x="648" y="54" class="caption">탐색</text>
  <rect x="724" y="39" width="74" height="22" rx="11" fill="#00FFA3"/>
  <text x="748" y="54" font-family="-apple-system, BlinkMacSystemFont, 'Apple SD Gothic Neo', sans-serif" font-size="11" font-weight="700" fill="#0A0A0A">시청</text>
  <text x="836" y="54" class="caption">멀티</text>
  <text x="1170" y="54" class="caption">현재 채널 A · 채팅 side</text>

  <g transform="translate(292 112)">
    <rect width="330" height="716" rx="16" fill="#17181A" stroke="rgba(255,255,255,0.08)"/>
    <text x="20" y="38" class="headline">Channel List</text>
    <rect x="20" y="64" width="290" height="34" rx="10" fill="#1C1C1E" stroke="rgba(255,255,255,0.08)"/>
    <text x="40" y="86" class="caption">검색</text>
    <line x1="20" y1="124" x2="310" y2="124" class="line"/>
    <g transform="translate(20 148)">
      <rect width="290" height="58" rx="10" fill="#1C1C1E"/>
      <circle cx="28" cy="29" r="15" fill="#00FFA3" fill-opacity="0.20"/>
      <text x="56" y="26" class="body">채널 A</text>
      <text x="56" y="43" class="caption">재생 중 · 8.2K</text>
      <circle cx="264" cy="29" r="5" fill="#FF3B30"/>
    </g>
    <g transform="translate(20 218)">
      <rect width="290" height="58" rx="10" fill="#17181A" stroke="rgba(255,255,255,0.06)"/>
      <circle cx="28" cy="29" r="15" fill="#5BA3FF" fill-opacity="0.18"/>
      <text x="56" y="26" class="body">채널 B</text>
      <text x="56" y="43" class="caption">+ 멀티</text>
    </g>
    <g transform="translate(20 288)">
      <rect width="290" height="58" rx="10" fill="#17181A" stroke="rgba(255,255,255,0.06)"/>
      <circle cx="28" cy="29" r="15" fill="#FF9F0A" fill-opacity="0.16"/>
      <text x="56" y="26" class="body">채널 C</text>
      <text x="56" y="43" class="caption">채팅만 열기</text>
    </g>
  </g>

  <g transform="translate(650 112)">
    <rect width="686" height="716" rx="16" fill="#17181A" stroke="rgba(255,255,255,0.08)"/>
    <rect x="24" y="24" width="638" height="438" rx="14" fill="url(#video)"/>
    <rect x="46" y="408" width="54" height="22" rx="11" fill="#FF3B30"/>
    <text x="59" y="423" font-family="-apple-system, BlinkMacSystemFont, sans-serif" font-size="10" font-weight="700" fill="#FFFFFF">LIVE</text>
    <text x="112" y="423" class="body">채널 A · 단일 시청</text>

    <line x1="24" y1="496" x2="662" y2="496" class="line"/>
    <rect x="24" y="528" width="184" height="64" rx="12" fill="#1C1C1E"/>
    <text x="44" y="556" class="body">탐색 유지</text>
    <text x="44" y="576" class="caption">왼쪽 list 고정</text>
    <rect x="232" y="528" width="184" height="64" rx="12" fill="#1C1C1E"/>
    <text x="252" y="556" class="body">시청 집중</text>
    <text x="252" y="576" class="caption">player first</text>
    <rect x="440" y="528" width="184" height="64" rx="12" fill="#1C1C1E"/>
    <text x="460" y="556" class="body">멀티 전환</text>
    <text x="460" y="576" class="caption">same focus area</text>

    <rect x="24" y="626" width="638" height="42" rx="12" fill="#101113" stroke="rgba(255,255,255,0.08)"/>
    <text x="46" y="652" class="caption">Chat drawer는 필요할 때만 오른쪽에서 열림. 기본 화면은 list + player 두 덩어리만 유지.</text>
  </g>
</svg>
