<svg width="1440" height="900" viewBox="0 0 1440 900" fill="none" xmlns="http://www.w3.org/2000/svg">
  <defs>
    <linearGradient id="stage" x1="0" y1="0" x2="1" y2="1">
      <stop stop-color="#14251E"/>
      <stop offset="0.5" stop-color="#20283A"/>
      <stop offset="1" stop-color="#101114"/>
    </linearGradient>
    <style>
      .title { font: 700 25px -apple-system, BlinkMacSystemFont, "SF Pro Display", "Apple SD Gothic Neo", sans-serif; fill: #F5F5F7; }
      .headline { font: 650 16px -apple-system, BlinkMacSystemFont, "SF Pro Text", "Apple SD Gothic Neo", sans-serif; fill: #F5F5F7; }
      .body { font: 500 13px -apple-system, BlinkMacSystemFont, "SF Pro Text", "Apple SD Gothic Neo", sans-serif; fill: #C8C8CD; }
      .caption { font: 500 11px -apple-system, BlinkMacSystemFont, "SF Pro Text", "Apple SD Gothic Neo", sans-serif; fill: #8E8E93; }
      .line { stroke: rgba(255,255,255,0.08); stroke-width: 1; }
    </style>
  </defs>

  <rect width="1440" height="900" fill="#141416"/>
  <rect x="24" y="22" width="1392" height="856" rx="22" fill="#17181A" stroke="rgba(255,255,255,0.08)"/>
  <rect x="24" y="22" width="228" height="856" rx="22" fill="#151618" stroke="rgba(255,255,255,0.06)"/>
  <line x1="252" y1="22" x2="252" y2="878" class="line"/>
  <circle cx="52" cy="45" r="6" fill="#FF5F57"/>
  <circle cx="74" cy="45" r="6" fill="#FFBD2E"/>
  <circle cx="96" cy="45" r="6" fill="#28C840"/>
  <text x="56" y="112" class="title">CView</text>
  <rect x="46" y="224" width="182" height="34" rx="8" fill="#00FFA3" fill-opacity="0.12" stroke="#00FFA3" stroke-opacity="0.32"/>
  <text x="68" y="246" class="body">라이브</text>

  <g transform="translate(292 102)">
    <rect width="1044" height="726" rx="18" fill="url(#stage)" stroke="rgba(255,255,255,0.10)"/>
    <circle cx="236" cy="210" r="128" fill="#00FFA3" fill-opacity="0.08"/>
    <circle cx="738" cy="196" r="160" fill="#5BA3FF" fill-opacity="0.07"/>
    <path d="M0 520C144 452 272 566 420 486C604 386 752 502 1044 398V726H0V520Z" fill="#050607" fill-opacity="0.45"/>

    <rect x="336" y="26" width="372" height="44" rx="22" fill="#101113" fill-opacity="0.86" stroke="rgba(255,255,255,0.12)"/>
    <rect x="346" y="34" width="106" height="28" rx="14" fill="#1C1C1E"/>
    <text x="382" y="53" class="caption">탐색</text>
    <rect x="466" y="34" width="106" height="28" rx="14" fill="#00FFA3"/>
    <text x="502" y="53" font-family="-apple-system, BlinkMacSystemFont, 'Apple SD Gothic Neo', sans-serif" font-size="11" font-weight="700" fill="#0A0A0A">시청</text>
    <rect x="586" y="34" width="106" height="28" rx="14" fill="#1C1C1E"/>
    <text x="622" y="53" class="caption">멀티</text>

    <rect x="34" y="586" width="332" height="68" rx="18" fill="#101113" fill-opacity="0.82" stroke="rgba(255,255,255,0.10)"/>
    <rect x="56" y="608" width="54" height="22" rx="11" fill="#FF3B30"/>
    <text x="69" y="623" font-family="-apple-system, BlinkMacSystemFont, sans-serif" font-size="10" font-weight="700" fill="#FFFFFF">LIVE</text>
    <text x="126" y="616" class="body">채널 A</text>
    <text x="126" y="634" class="caption">시청 stage가 기본 화면</text>

    <rect x="734" y="586" width="276" height="68" rx="18" fill="#101113" fill-opacity="0.82" stroke="rgba(255,255,255,0.10)"/>
    <text x="758" y="616" class="body">멀티 2/4</text>
    <text x="758" y="634" class="caption">멀티 버튼 시 grid로 전환</text>
  </g>

  <g transform="translate(322 216)">
    <rect width="294" height="346" rx="16" fill="#101113" fill-opacity="0.88" stroke="rgba(255,255,255,0.12)"/>
    <text x="22" y="38" class="headline">탐색 shelf</text>
    <text x="22" y="62" class="caption">탐색 버튼을 누를 때만 overlay</text>
    <rect x="22" y="90" width="250" height="32" rx="10" fill="#1C1C1E"/>
    <text x="42" y="111" class="caption">검색</text>
    <g transform="translate(22 150)">
      <rect width="250" height="48" rx="10" fill="#1C1C1E"/>
      <circle cx="24" cy="24" r="14" fill="#00FFA3" fill-opacity="0.20"/>
      <text x="50" y="22" class="body">채널 A</text>
      <text x="50" y="38" class="caption">선택 → 시청</text>
    </g>
    <g transform="translate(22 210)">
      <rect width="250" height="48" rx="10" fill="#17181A" stroke="rgba(255,255,255,0.06)"/>
      <circle cx="24" cy="24" r="14" fill="#5BA3FF" fill-opacity="0.18"/>
      <text x="50" y="22" class="body">채널 B</text>
      <text x="50" y="38" class="caption">+ 멀티</text>
    </g>
  </g>

  <text x="292" y="56" class="headline">Floating Mode Switcher</text>
  <text x="292" y="82" class="caption">시청 stage를 먼저 보여주고 탐색/멀티는 필요한 순간만 가볍게 올라오는 가장 미디어 앱다운 안</text>
</svg>
