<svg width="1440" height="900" viewBox="0 0 1440 900" fill="none" xmlns="http://www.w3.org/2000/svg">
  <defs>
    <linearGradient id="bg" x1="0" y1="0" x2="1440" y2="900" gradientUnits="userSpaceOnUse">
      <stop stop-color="#141416"/>
      <stop offset="1" stop-color="#101116"/>
    </linearGradient>
    <linearGradient id="green" x1="0" y1="0" x2="1" y2="1">
      <stop stop-color="#00FFA3"/>
      <stop offset="1" stop-color="#00875A"/>
    </linearGradient>
    <linearGradient id="preview" x1="0" y1="0" x2="1" y2="1">
      <stop stop-color="#1D3C35"/>
      <stop offset="0.55" stop-color="#27344A"/>
      <stop offset="1" stop-color="#14161B"/>
    </linearGradient>
    <filter id="shadow" x="-20%" y="-20%" width="140%" height="140%">
      <feDropShadow dx="0" dy="16" stdDeviation="18" flood-color="#000000" flood-opacity="0.34"/>
    </filter>
    <style>
      .title { font: 700 28px -apple-system, BlinkMacSystemFont, "SF Pro Display", "Apple SD Gothic Neo", sans-serif; fill: #F5F5F7; }
      .headline { font: 700 18px -apple-system, BlinkMacSystemFont, "SF Pro Display", "Apple SD Gothic Neo", sans-serif; fill: #F5F5F7; }
      .body { font: 500 14px -apple-system, BlinkMacSystemFont, "SF Pro Text", "Apple SD Gothic Neo", sans-serif; fill: #C8C8CD; }
      .caption { font: 600 12px -apple-system, BlinkMacSystemFont, "SF Pro Text", "Apple SD Gothic Neo", sans-serif; fill: #8E8E93; }
      .micro { font: 700 10px -apple-system, BlinkMacSystemFont, "SF Pro Text", "Apple SD Gothic Neo", sans-serif; fill: #00FFA3; }
      .panel { fill: #1C1C1E; stroke: rgba(255,255,255,0.10); stroke-width: 1; }
      .elevated { fill: #242426; stroke: rgba(255,255,255,0.12); stroke-width: 1; }
      .line { stroke: rgba(255,255,255,0.08); stroke-width: 1; }
    </style>
  </defs>

  <rect width="1440" height="900" fill="url(#bg)"/>
  <rect x="24" y="22" width="1392" height="856" rx="24" fill="#17181A" stroke="rgba(255,255,255,0.08)"/>
  <rect x="24" y="22" width="236" height="856" rx="24" fill="#151618" stroke="rgba(255,255,255,0.06)"/>
  <rect x="24" y="68" width="1392" height="1" fill="rgba(255,255,255,0.08)"/>
  <circle cx="52" cy="45" r="6" fill="#FF5F57"/>
  <circle cx="74" cy="45" r="6" fill="#FFBD2E"/>
  <circle cx="96" cy="45" r="6" fill="#28C840"/>

  <text x="58" y="116" class="title">CView</text>
  <rect x="48" y="146" width="188" height="38" rx="10" fill="#1C1C1E"/>
  <text x="70" y="171" class="caption">홈</text>
  <rect x="48" y="196" width="188" height="38" rx="10" fill="url(#green)" fill-opacity="0.16" stroke="#00FFA3" stroke-opacity="0.45"/>
  <text x="70" y="221" class="body" fill="#F5F5F7">라이브</text>
  <rect x="48" y="246" width="188" height="34" rx="10" fill="#1C1C1E"/>
  <text x="70" y="268" class="caption">모니터링</text>
  <rect x="48" y="292" width="188" height="34" rx="10" fill="#1C1C1E"/>
  <text x="70" y="314" class="caption">알림</text>

  <text x="300" y="116" class="title">Live Monitoring Dashboard</text>
  <text x="300" y="142" class="body">많은 팔로잉 채널을 상태, 카테고리, 시청자, 알림 중심으로 빠르게 스캔하는 고밀도 모드</text>

  <g filter="url(#shadow)">
    <rect x="300" y="170" width="1068" height="112" rx="20" class="panel"/>
    <text x="326" y="208" class="headline">Monitoring Header</text>
    <g transform="translate(326 226)">
      <rect width="154" height="36" rx="12" class="elevated"/>
      <text x="16" y="23" class="caption">LIVE</text>
      <text x="76" y="23" class="micro" fill="#FF3B30">24</text>
    </g>
    <g transform="translate(496 226)">
      <rect width="154" height="36" rx="12" class="elevated"/>
      <text x="16" y="23" class="caption">시청자</text>
      <text x="84" y="23" class="micro">12.4K</text>
    </g>
    <g transform="translate(666 226)">
      <rect width="154" height="36" rx="12" class="elevated"/>
      <text x="16" y="23" class="caption">급상승</text>
      <text x="88" y="23" class="micro" fill="#FFAA00">3</text>
    </g>
    <g transform="translate(836 226)">
      <rect width="154" height="36" rx="12" class="elevated"/>
      <text x="16" y="23" class="caption">알림 ON</text>
      <text x="90" y="23" class="micro">18</text>
    </g>
    <rect x="1188" y="196" width="150" height="36" rx="18" fill="url(#green)"/>
    <text x="1228" y="219" class="micro" fill="#0A0A0A">Table Mode</text>
  </g>

  <g>
    <rect x="300" y="306" width="1068" height="48" rx="14" class="panel"/>
    <rect x="322" y="316" width="74" height="28" rx="14" fill="url(#green)"/>
    <text x="346" y="334" class="micro" fill="#0A0A0A">전체</text>
    <rect x="406" y="316" width="84" height="28" rx="14" class="elevated"/>
    <text x="430" y="334" class="caption">라이브</text>
    <rect x="500" y="316" width="104" height="28" rx="14" class="elevated"/>
    <text x="522" y="334" class="caption">방금 시작</text>
    <rect x="614" y="316" width="94" height="28" rx="14" class="elevated"/>
    <text x="636" y="334" class="caption">급상승</text>
    <rect x="718" y="316" width="94" height="28" rx="14" class="elevated"/>
    <text x="742" y="334" class="caption">알림</text>
    <rect x="822" y="316" width="142" height="28" rx="14" class="elevated"/>
    <text x="846" y="334" class="caption">시청자 1K+</text>
    <rect x="1174" y="316" width="164" height="28" rx="14" class="elevated"/>
    <text x="1204" y="334" class="caption">채널/제목 검색</text>
  </g>

  <g filter="url(#shadow)">
    <rect x="300" y="386" width="746" height="442" rx="22" class="panel"/>
    <text x="326" y="424" class="headline">Dense Live Table</text>
    <line x1="326" y1="454" x2="1020" y2="454" class="line"/>
    <text x="326" y="482" class="caption">채널</text>
    <text x="510" y="482" class="caption">방송 제목</text>
    <text x="742" y="482" class="caption">카테고리</text>
    <text x="842" y="482" class="caption">시청자</text>
    <text x="932" y="482" class="caption">액션</text>
    <line x1="326" y1="498" x2="1020" y2="498" class="line"/>

    <g transform="translate(326 514)">
      <rect width="694" height="54" rx="12" fill="#242426"/>
      <circle cx="24" cy="27" r="14" fill="#00FFA3" fill-opacity="0.24"/>
      <text x="48" y="24" class="body">채널 A</text>
      <text x="48" y="41" class="caption">팔로잉</text>
      <text x="184" y="31" class="body">오늘의 메인 방송 타이틀</text>
      <text x="416" y="31" class="caption">게임</text>
      <text x="516" y="31" class="micro">8.2K ↑</text>
      <text x="606" y="31" class="micro">PLAY + CHAT</text>
    </g>
    <g transform="translate(326 580)">
      <rect width="694" height="54" rx="12" fill="#1C1C1E"/>
      <circle cx="24" cy="27" r="14" fill="#FF3B30" fill-opacity="0.22"/>
      <text x="48" y="24" class="body">채널 B</text>
      <text x="48" y="41" class="caption">알림 ON</text>
      <text x="184" y="31" class="body">토크 라이브</text>
      <text x="416" y="31" class="caption">토크</text>
      <text x="516" y="31" class="micro">2.1K</text>
      <text x="606" y="31" class="micro">PLAY + CHAT</text>
    </g>
    <g transform="translate(326 646)">
      <rect width="694" height="54" rx="12" fill="#1C1C1E"/>
      <circle cx="24" cy="27" r="14" fill="#5BA3FF" fill-opacity="0.22"/>
      <text x="48" y="24" class="body">채널 C</text>
      <text x="48" y="41" class="caption">방금 시작</text>
      <text x="184" y="31" class="body">음악 방송</text>
      <text x="416" y="31" class="caption">음악</text>
      <text x="516" y="31" class="micro">934</text>
      <text x="606" y="31" class="micro">PLAY + CHAT</text>
    </g>
    <g transform="translate(326 712)">
      <rect width="694" height="54" rx="12" fill="#1C1C1E"/>
      <circle cx="24" cy="27" r="14" fill="#FFAA00" fill-opacity="0.22"/>
      <text x="48" y="24" class="body">채널 D</text>
      <text x="48" y="41" class="caption">긴 방송</text>
      <text x="184" y="31" class="body">장시간 라이브</text>
      <text x="416" y="31" class="caption">게임</text>
      <text x="516" y="31" class="micro">721</text>
      <text x="606" y="31" class="micro">PLAY + CHAT</text>
    </g>
  </g>

  <g filter="url(#shadow)">
    <rect x="1070" y="386" width="298" height="442" rx="22" class="panel"/>
    <text x="1094" y="424" class="headline">Preview / Detail</text>
    <rect x="1094" y="448" width="250" height="142" rx="16" fill="url(#preview)" stroke="#00FFA3" stroke-opacity="0.28"/>
    <rect x="1112" y="552" width="52" height="22" rx="11" fill="#FF3B30"/>
    <text x="1124" y="567" class="micro" fill="#FFFFFF">LIVE</text>
    <text x="1094" y="626" class="headline">채널 A</text>
    <text x="1094" y="650" class="caption">오늘의 메인 방송 타이틀</text>
    <text x="1094" y="674" class="caption">게임 · 8.2K · 급상승</text>
    <rect x="1094" y="706" width="250" height="36" rx="18" fill="url(#green)"/>
    <text x="1195" y="729" class="micro" fill="#0A0A0A">재생</text>
    <rect x="1094" y="754" width="116" height="34" rx="17" class="elevated"/>
    <text x="1125" y="776" class="micro">+ 멀티</text>
    <rect x="1228" y="754" width="116" height="34" rx="17" class="elevated"/>
    <text x="1258" y="776" class="micro">채팅</text>
  </g>
</svg>
